<?xml version="1.0" encoding="utf-8"?>
<!-- Generator: Adobe Illustrator 18.0.0, SVG Export Plug-In . SVG Version: 6.00 Build 0)  -->
<!DOCTYPE svg PUBLIC "-//W3C//DTD SVG 1.1//EN" "http://www.w3.org/Graphics/SVG/1.1/DTD/svg11.dtd">
<svg version="1.1" id="Слой_2" xmlns="http://www.w3.org/2000/svg" xmlns:xlink="http://www.w3.org/1999/xlink" x="0px" y="0px"
	 viewBox="0 254 1200 298" enable-background="new 0 254 1200 298" xml:space="preserve">
<path fill="none" stroke="#000000" stroke-width="2" stroke-miterlimit="10" d="M1183.7,429.3c0,0,1.1-9.7,2.1-16.4
	c1-6.7,6.4-29.7,6.8-32.7c0.5-3,0.9-19.5,0.9-19.5l-42.4-0.9c0,0,2.3-6,6.2-10.9c3.9-4.9,4.3-14.3,4.3-14.3s-77.9-0.4-81.3,1.1
	c-3.4,1.5-1.3,7-3,28.9c-0.6,8.3,0.5,15.3,2.2,20.8c-6.9-2-14.2-3.1-21.8-3.1c-12.8,0-24.8,3.1-35.5,8.5
	c-45-17.8-218.3-86.5-224.7-89.4c-7.3-3.4-11.5-5.9-28-7.6c-16.4-1.7-72.3-5.2-72.3-5.2l5.3-12.6l7.9-4.4c0,0-18.4-3.8-24-5.8
	c-5.6-1.9-20.5-1.9-23.9-1.1c-3.4,0.9-8.2,2-8.3,5c-0.1,3,7.8,5.7,7.8,5.7s-9.1,14.8-12,20.4c-2.9,5.6-0.4,32-0.4,32l5.6,2.9
	c0,0-0.2,11.8-2.2,12.7s-14.8-1.3-22,3.1s-5,13.6-6.1,9.5c-1.2-4.1-5.3-10-5.3-10l0.3-6.1l-6.4-1c0,0-5.4-7.3-22.3-7.4
	c-16.9-0.1-24.6,6.3-32.8,16.4c-8.2,10.1-9.6,26.2-9.6,26.2l-2.7-0.1l-0.3,6.4c0,0-62,0-68.4-0.3c-6.4-0.3-20.3-4.9-20.3-4.9
	s-2.6-0.1-7-0.3l-0.4-7c2.6,0.5,4.7,0.6,4.7,0.6v-15.2c0,0-13.5,1.9-13.5,8.2c0,3.3,3.7,5,7.2,6v7.3c-21.3-1-73.9-3.5-90.6-4
	c-0.1-3.1-0.1-7.2,0.3-10.9c0.8-7.1,4.3-21.7,4.3-21.7s-1,4-4.4,15.2c-2,6.5-3.1,13.1-3.7,17.4c-17.9-0.3-96.3,1.5-117.6,2.9
	c-21.6,1.4-68.1,14.5-88.6,21.7c-20.5,7.2-98.8,39.5-98.8,39.5s-2.4,0.9-6.1,1.1c-3.7,0.2-23.1,4.7-23.1,4.7l-2.3,13.4
	c0,0-3.1,2.2-7.3,4.4c-4.1,2.2-6.7,7.1-5.2,11.6c1.5,4.4,15.7,3.7,15.7,3.7l-0.1,3.4l15.5,0.7c0,0,0,0,0.6,8.5
	c0.6,8.5,10.9,13,17.5,15.3c6.6,2.3,26.8-2.9,26.8-2.9l6.3,3.3l-0.2,4.1l106.8,2c0,0-0.4,8.7,3.9,10c3,0.8,12.9-5.2,18.6-9l15.9,0.7
	l0.1-3l22.3,1c13.4,18.6,34.9,31.2,59.6,32.3c23.4,1,44.9-8.5,59.8-24.3l108.9,2l0.1,4.7c0,0,101.4,1.1,113.1,1.3
	c11.7,0.2,10.3,6.5,10.3,6.5l352.7-1l-0.1-6.4l-5.6-2.3l-0.8-4.4l46.3-1.7l2.2-0.2c14.2,15,34.3,24.3,56.6,24.3
	c29.4,0,55-16.3,68.4-40.3c5.5-1.9,11.6-4,14-4.6c4.8-1.1,7.5-1,7.5-1s4.3-4.9,8.2-9.8c3.9-4.9,4.3-13,4.3-13s-19.5-0.5-23.9,0
	c-0.3,0-0.5,0.1-0.8,0.1c0.3-2.1,0.4-4.3,0.5-6.5c2.1-0.9,4.2-1.6,6-2.1c7.5-2,20.2,0.9,20.2,0.9l11.1,0.5l19.9-1.1l1.4-32.3
	L1183.7,429.3z M201.5,513.5l0.2-5l9.3,0.4C207.3,511.2,201.5,513.5,201.5,513.5z M317.6,534.6c-40.5,0-73.3-32.3-73.3-72.1
	c0-39.8,32.8-72.1,73.3-72.1c40.5,0,73.3,32.3,73.3,72.1C390.8,502.3,358,534.6,317.6,534.6z M1057.7,535.4
	c-40.9,0-74.1-33.6-74.1-75c0-41.4,33.2-75,74.1-75c40.9,0,74.1,33.6,74.1,75C1131.8,501.9,1098.6,535.4,1057.7,535.4z"/>
<ellipse fill="none" stroke="#000000" stroke-width="2" stroke-miterlimit="10" cx="1057.7" cy="460.4" rx="37.6" ry="38.1"/>
<ellipse fill="none" stroke="#000000" stroke-width="2" stroke-miterlimit="10" cx="317.6" cy="462.5" rx="40" ry="39.4"/>
</svg>
