<svg width="336" height="74" viewBox="0 0 336 74" fill="none" xmlns="http://www.w3.org/2000/svg">
<path d="M2.84326 44.1335H12.2266L67.1046 28.0966C69.7172 26.7748 72.5511 25.9458 75.4642 25.6512L92.0698 20.8174H92.4679H92.866H165.259C166.885 20.8174 168.494 20.4964 169.995 19.8726C171.496 19.2489 172.859 18.3348 174.006 17.1829C175.152 16.0309 176.06 14.6638 176.677 13.16C177.294 11.6562 177.607 10.0454 177.6 8.42008V2.90385C177.6 2.14972 177.9 1.42649 178.433 0.893242C178.966 0.359997 179.689 0.0604254 180.443 0.0604254H216.725C217.081 -0.0201418 217.45 -0.0201418 217.806 0.0604254L280.418 25.6512H281.1L287.185 2.22142C287.318 1.59977 287.663 1.04375 288.161 0.649254C288.659 0.254757 289.28 0.0465121 289.915 0.0604254H322.273C322.701 0.0581837 323.124 0.154481 323.508 0.341856C323.893 0.529231 324.229 0.802655 324.491 1.14093C324.766 1.48921 324.955 1.89686 325.044 2.33133C325.133 2.7658 325.119 3.21503 325.003 3.64313L319.316 25.765H332.68C333.116 25.7625 333.547 25.8584 333.941 26.0454C334.335 26.2325 334.681 26.5059 334.955 26.8454C335.208 27.2042 335.381 27.614 335.459 28.0462C335.538 28.4784 335.521 28.9226 335.41 29.3477L333.419 37.0249L331.372 44.759C331.221 45.3708 330.871 45.915 330.377 46.3061C329.883 46.6973 329.273 46.9132 328.642 46.92H306.634C306.693 47.8479 306.693 48.7786 306.634 49.7066C306.65 56.1219 304.119 62.2813 299.599 66.8335C295.079 71.3858 288.937 73.9593 282.522 73.9894C276.932 73.9403 271.537 71.9273 267.281 68.3025H108.05C107.711 68.3568 107.365 68.3568 107.026 68.3025C106.76 68.1847 106.512 68.0317 106.287 67.8476L105.832 67.1652C105.804 67.0339 105.804 66.8983 105.832 66.7671C105.628 66.6175 105.464 66.4198 105.355 66.1916C105.246 65.9634 105.195 65.7118 105.206 65.4591C105.185 65.2702 105.185 65.0794 105.206 64.8904C105.206 64.8904 105.206 64.8904 105.206 64.4355C106.098 62.2922 106.543 59.9894 106.514 57.6682C106.517 52.9313 104.706 48.3733 101.453 44.9296C101.751 46.4855 101.903 48.0656 101.908 49.6497C101.971 55.9085 99.5916 61.9452 95.2757 66.4783C90.9598 71.0113 85.0469 73.6837 78.7926 73.9279C72.5383 74.1722 66.4351 71.9691 61.7788 67.7864C57.1225 63.6038 54.2798 57.7709 53.8542 51.5264L42.4806 54.8247V63.0138C42.4806 63.7679 42.181 64.4911 41.6477 65.0244C41.1145 65.5576 40.3913 65.8572 39.6371 65.8572H2.84326C2.08914 65.8572 1.36591 65.5576 0.832642 65.0244C0.299408 64.4911 -0.000183105 63.7679 -0.000183105 63.0138V46.9769C-0.000183105 46.2228 0.299408 45.4995 0.832642 44.9663C1.36591 44.433 2.08914 44.1335 2.84326 44.1335ZM327.903 35.6032L328.984 31.3381H317.61L315.051 41.1194H326.425L327.903 35.6032ZM309.421 41.29L318.577 5.74727H292.133L287.185 25.6512C291.325 26.416 295.195 28.244 298.416 30.9558C301.636 33.6676 304.096 37.17 305.554 41.1194L309.421 41.29ZM301.232 49.7634C301.198 46.1267 300.089 42.5813 298.044 39.5737C295.999 36.5662 293.11 34.2312 289.74 32.8627C286.371 31.4943 282.671 31.1537 279.108 31.8838C275.546 32.6138 272.279 34.382 269.719 36.9655C267.159 39.549 265.421 42.8323 264.724 46.4017C264.026 49.9712 264.401 53.6671 265.801 57.024C267.2 60.3808 269.562 63.2485 272.588 65.2656C275.614 67.2828 279.17 68.3592 282.807 68.3594C285.241 68.3445 287.649 67.8502 289.893 66.9048C292.136 65.9593 294.171 64.5812 295.882 62.8491C297.593 61.117 298.946 59.0649 299.864 56.8099C300.782 54.5549 301.247 52.1412 301.232 49.7066V49.7634ZM112.429 57.7819C112.415 59.4465 112.224 61.105 111.86 62.7294H262.505C260.031 58.8379 258.728 54.3175 258.751 49.7066C258.761 45.2777 259.979 40.9354 262.273 37.1475C264.568 33.3595 267.853 30.2695 271.774 28.2103L216.214 5.74727H183.344V8.19261C183.351 10.5648 182.89 12.9151 181.988 15.1088C181.085 17.3026 179.758 19.2966 178.084 20.9766C176.409 22.6566 174.419 23.9896 172.228 24.8991C170.037 25.8086 167.689 26.2768 165.316 26.2768H93.3778L88.3165 27.7554C91.9129 29.5091 95.034 32.1035 97.4155 35.3189C101.848 37.1576 105.638 40.2657 108.309 44.2523C110.981 48.2389 112.414 52.9262 112.429 57.725V57.7819ZM78.0233 68.3594C81.7263 68.4271 85.3656 67.391 88.4776 65.3831C91.5896 63.3751 94.0334 60.4861 95.4976 57.0843C96.9619 53.6825 97.3803 49.9217 96.6996 46.2813C96.0189 42.6408 94.2698 39.2853 91.6753 36.6424C89.0807 33.9995 85.7581 32.1889 82.1308 31.441C78.5035 30.6932 74.7357 31.0421 71.3074 32.4433C67.8792 33.8446 64.9456 36.2346 62.8805 39.309C60.8154 42.3834 59.7123 46.003 59.7117 49.7066C59.6963 54.5941 61.6117 59.29 65.041 62.7726C68.4703 66.2551 73.1361 68.2426 78.0233 68.3025V68.3594ZM54.3092 45.612C54.8848 42.5662 56.0226 39.6542 57.6644 37.0249L32.4717 44.4178H40.0921C40.8416 44.4324 41.5565 44.7366 42.0866 45.2667C42.6167 45.7969 42.9209 46.5117 42.9355 47.2612V49.2516L54.3092 45.612ZM5.68668 60.2272H36.9643V49.8203H5.68668V60.2272Z" fill="current"/>
<path d="M282.807 38.674C284.994 38.6514 287.138 39.2793 288.967 40.4777C290.796 41.6762 292.228 43.3913 293.08 45.4051C293.933 47.4189 294.168 49.6407 293.755 51.7882C293.342 53.9357 292.3 55.9122 290.762 57.4665C289.224 59.0208 287.258 60.0829 285.115 60.5179C282.972 60.9529 280.748 60.7411 278.725 59.9096C276.703 59.078 274.973 57.6641 273.756 55.8474C272.538 54.0308 271.888 51.8933 271.888 49.7065C271.888 46.8001 273.035 44.011 275.079 41.9452C277.124 39.8795 279.901 38.704 282.807 38.674ZM282.807 54.9952C283.871 55.0178 284.918 54.7222 285.813 54.1462C286.708 53.5701 287.411 52.74 287.831 51.7621C288.252 50.7841 288.371 49.7029 288.173 48.657C287.975 47.6111 287.469 46.6481 286.721 45.8914C285.972 45.1346 285.015 44.6186 283.971 44.4094C282.927 44.2002 281.845 44.3074 280.862 44.7172C279.88 45.127 279.042 45.8208 278.457 46.7097C277.871 47.5986 277.564 48.642 277.575 49.7065C277.575 51.0993 278.124 52.436 279.104 53.4262C280.083 54.4164 281.414 54.9802 282.807 54.9952Z" fill="current"/>
<path d="M78.0252 38.674C80.2119 38.6514 82.356 39.2793 84.1852 40.4777C86.0143 41.6762 87.4461 43.3913 88.2986 45.4051C89.1511 47.4189 89.3858 49.6407 88.9731 51.7882C88.5603 53.9357 87.5187 55.9122 85.9804 57.4665C84.4421 59.0208 82.4766 60.0829 80.3334 60.5179C78.1903 60.9529 75.9662 60.7411 73.9437 59.9096C71.9211 59.078 70.1913 57.6641 68.9739 55.8474C67.7566 54.0308 67.1065 51.8933 67.1064 49.7065C67.1063 46.8001 68.253 44.011 70.2974 41.9452C72.3419 39.8795 75.1189 38.704 78.0252 38.674ZM78.0252 54.9952C79.0894 55.0178 80.1361 54.7222 81.0313 54.1462C81.9265 53.5701 82.6293 52.74 83.0497 51.7621C83.4701 50.7841 83.5889 49.7029 83.3911 48.657C83.1932 47.6111 82.6875 46.6481 81.9389 45.8914C81.1903 45.1346 80.2328 44.6186 79.1891 44.4094C78.1454 44.2002 77.063 44.3074 76.0806 44.7172C75.0981 45.127 74.2604 45.8208 73.6748 46.7097C73.0891 47.5986 72.7822 48.642 72.7933 49.7065C72.7932 51.0993 73.3426 52.436 74.3221 53.4262C75.3017 54.4164 76.6324 54.9802 78.0252 54.9952Z" fill="current"/>
<path d="M160.37 40.437C159.616 40.437 158.892 40.1374 158.359 39.6042C157.826 39.071 157.526 38.3477 157.526 37.5936C157.541 36.844 157.845 36.1292 158.375 35.5991C158.905 35.069 159.62 34.7647 160.37 34.7502H167.763C168.512 34.7647 169.227 35.069 169.757 35.5991C170.287 36.1292 170.591 36.844 170.606 37.5936V57.0426C170.606 57.7967 170.306 58.52 169.773 59.0532C169.24 59.5865 168.517 59.886 167.763 59.886H160.37C159.616 59.886 158.892 59.5865 158.359 59.0532C157.826 58.52 157.526 57.7967 157.526 57.0426C157.526 56.2885 157.826 55.5652 158.359 55.032C158.892 54.4988 159.616 54.1992 160.37 54.1992H164.749V40.437H160.37Z" fill="current"/>
<path d="M144.447 40.437C143.693 40.437 142.97 40.1374 142.437 39.6042C141.903 39.071 141.604 38.3477 141.604 37.5936C141.604 36.8395 141.903 36.1162 142.437 35.583C142.97 35.0498 143.693 34.7502 144.447 34.7502H151.613C152.367 34.7502 153.09 35.0498 153.623 35.583C154.156 36.1162 154.456 36.8395 154.456 37.5936V57.0426C154.456 57.7967 154.156 58.52 153.623 59.0532C153.09 59.5865 152.367 59.886 151.613 59.886H144.447C143.693 59.886 142.97 59.5865 142.437 59.0532C141.903 58.52 141.604 57.7967 141.604 57.0426C141.604 56.2885 141.903 55.5652 142.437 55.032C142.97 54.4988 143.693 54.1992 144.447 54.1992H148.769V40.437H144.447Z" fill="current"/>
<path d="M128.467 40.437C127.713 40.437 126.99 40.1374 126.457 39.6042C125.923 39.071 125.624 38.3477 125.624 37.5936C125.638 36.844 125.943 36.1292 126.473 35.5991C127.003 35.069 127.718 34.7647 128.467 34.7502H135.633C136.387 34.7502 137.11 35.0498 137.643 35.583C138.177 36.1162 138.476 36.8395 138.476 37.5936V57.0426C138.476 57.7967 138.177 58.52 137.643 59.0532C137.11 59.5865 136.387 59.886 135.633 59.886H128.467C127.713 59.886 126.99 59.5865 126.457 59.0532C125.923 58.52 125.624 57.7967 125.624 57.0426C125.624 56.2885 125.923 55.5652 126.457 55.032C126.99 54.4988 127.713 54.1992 128.467 54.1992H132.789V40.437H128.467Z" fill="current"/>
</svg>
